<svg xmlns="http://www.w3.org/2000/svg" width="11.667" height="14" viewBox="0 0 11.667 14"><path id="Union_1" d="M1.253 13.317A1.755 1.755 0 0 1 0 11.643 4.34 4.34 0 0 1 .988 8.89a3.584 3.584 0 0 1 2.556-1.3 4.828 4.828 0 0 0 4.578 0 3.58 3.58 0 0 1 2.555 1.3 4.337 4.337 0 0 1 .989 2.753 1.755 1.755 0 0 1-1.253 1.674 15.7 15.7 0 0 1-4.58.683 15.7 15.7 0 0 1-4.58-.683zM2.271 3.5A3.531 3.531 0 0 1 5.833 0 3.532 3.532 0 0 1 9.4 3.5 3.532 3.532 0 0 1 5.833 7a3.531 3.531 0 0 1-3.562-3.5z" fill="#3b4144" data-name="Union 1"></path></svg>